# Blender 5.0.1
# www.blender.org
mtllib 2-2.mtl
o 큐브
v -0.016000 -0.010000 0.016000
v -0.016000 0.010000 0.016000
v -0.016000 -0.010000 -0.016000
v -0.016000 0.010000 -0.016000
v -0.008000 0.010000 -0.012500
v -0.008000 0.014200 -0.012500
v -0.007122 0.010000 -0.012414
v -0.007122 0.014200 -0.012414
v -0.006278 0.010000 -0.012157
v -0.006278 0.014200 -0.012157
v -0.005500 0.010000 -0.011742
v -0.005500 0.014200 -0.011742
v -0.004818 0.010000 -0.011182
v -0.004818 0.014200 -0.011182
v -0.004258 0.010000 -0.010500
v -0.004258 0.014200 -0.010500
v -0.003843 0.010000 -0.009722
v -0.003843 0.014200 -0.009722
v -0.003586 0.010000 -0.008878
v -0.003586 0.014200 -0.008878
v -0.003500 0.010000 -0.008000
v -0.003500 0.014200 -0.008000
v -0.003586 0.010000 -0.007122
v -0.003586 0.014200 -0.007122
v -0.003843 0.010000 -0.006278
v -0.003843 0.014200 -0.006278
v -0.004258 0.010000 -0.005500
v -0.004258 0.014200 -0.005500
v -0.004818 0.010000 -0.004818
v -0.004818 0.014200 -0.004818
v -0.005500 0.010000 -0.004258
v -0.005500 0.014200 -0.004258
v -0.006278 0.010000 -0.003843
v -0.006278 0.014200 -0.003843
v -0.007122 0.010000 -0.003586
v -0.007122 0.014200 -0.003586
v -0.008000 0.010000 -0.003500
v -0.008000 0.014200 -0.003500
v -0.008878 0.010000 -0.003586
v -0.008878 0.014200 -0.003586
v -0.009722 0.010000 -0.003843
v -0.009722 0.014200 -0.003843
v -0.010500 0.010000 -0.004258
v -0.010500 0.014200 -0.004258
v -0.011182 0.010000 -0.004818
v -0.011182 0.014200 -0.004818
v -0.011742 0.010000 -0.005500
v -0.011742 0.014200 -0.005500
v -0.012157 0.010000 -0.006278
v -0.012157 0.014200 -0.006278
v -0.012414 0.010000 -0.007122
v -0.012414 0.014200 -0.007122
v -0.012500 0.010000 -0.008000
v -0.012500 0.014200 -0.008000
v -0.012414 0.010000 -0.008878
v -0.012414 0.014200 -0.008878
v -0.012157 0.010000 -0.009722
v -0.012157 0.014200 -0.009722
v -0.011742 0.010000 -0.010500
v -0.011742 0.014200 -0.010500
v -0.011182 0.010000 -0.011182
v -0.011182 0.014200 -0.011182
v -0.010500 0.010000 -0.011742
v -0.010500 0.014200 -0.011742
v -0.009722 0.010000 -0.012157
v -0.009722 0.014200 -0.012157
v -0.008878 0.010000 -0.012414
v -0.008878 0.014200 -0.012414
v 0.008000 0.010000 -0.012500
v 0.008000 0.014200 -0.012500
v 0.008878 0.010000 -0.012414
v 0.008878 0.014200 -0.012414
v 0.009722 0.010000 -0.012157
v 0.009722 0.014200 -0.012157
v 0.010500 0.010000 -0.011742
v 0.010500 0.014200 -0.011742
v 0.011182 0.010000 -0.011182
v 0.011182 0.014200 -0.011182
v 0.011742 0.010000 -0.010500
v 0.011742 0.014200 -0.010500
v 0.012157 0.010000 -0.009722
v 0.012157 0.014200 -0.009722
v 0.012414 0.010000 -0.008878
v 0.012414 0.014200 -0.008878
v 0.012500 0.010000 -0.008000
v 0.012500 0.014200 -0.008000
v 0.012414 0.010000 -0.007122
v 0.012414 0.014200 -0.007122
v 0.012157 0.010000 -0.006278
v 0.012157 0.014200 -0.006278
v 0.011742 0.010000 -0.005500
v 0.011742 0.014200 -0.005500
v 0.011182 0.010000 -0.004818
v 0.011182 0.014200 -0.004818
v 0.010500 0.010000 -0.004258
v 0.010500 0.014200 -0.004258
v 0.009722 0.010000 -0.003843
v 0.009722 0.014200 -0.003843
v 0.008878 0.010000 -0.003586
v 0.008878 0.014200 -0.003586
v 0.008000 0.010000 -0.003500
v 0.008000 0.014200 -0.003500
v 0.007122 0.010000 -0.003586
v 0.007122 0.014200 -0.003586
v 0.006278 0.010000 -0.003843
v 0.006278 0.014200 -0.003843
v 0.005500 0.010000 -0.004258
v 0.005500 0.014200 -0.004258
v 0.004818 0.010000 -0.004818
v 0.004818 0.014200 -0.004818
v 0.004258 0.010000 -0.005500
v 0.004258 0.014200 -0.005500
v 0.003843 0.010000 -0.006278
v 0.003843 0.014200 -0.006278
v 0.003586 0.010000 -0.007122
v 0.003586 0.014200 -0.007122
v 0.003500 0.010000 -0.008000
v 0.003500 0.014200 -0.008000
v 0.003586 0.010000 -0.008878
v 0.003586 0.014200 -0.008878
v 0.003843 0.010000 -0.009722
v 0.003843 0.014200 -0.009722
v 0.004258 0.010000 -0.010500
v 0.004258 0.014200 -0.010500
v 0.004818 0.010000 -0.011182
v 0.004818 0.014200 -0.011182
v 0.005500 0.010000 -0.011742
v 0.005500 0.014200 -0.011742
v 0.006278 0.010000 -0.012157
v 0.006278 0.014200 -0.012157
v 0.007122 0.010000 -0.012414
v 0.007122 0.014200 -0.012414
v 0.008000 0.010000 0.003500
v 0.008000 0.014200 0.003500
v 0.008878 0.010000 0.003586
v 0.008878 0.014200 0.003586
v 0.009722 0.010000 0.003843
v 0.009722 0.014200 0.003843
v 0.010500 0.010000 0.004258
v 0.010500 0.014200 0.004258
v 0.011182 0.010000 0.004818
v 0.011182 0.014200 0.004818
v 0.011742 0.010000 0.005500
v 0.011742 0.014200 0.005500
v 0.012157 0.010000 0.006278
v 0.012157 0.014200 0.006278
v 0.012414 0.010000 0.007122
v 0.012414 0.014200 0.007122
v 0.012500 0.010000 0.008000
v 0.012500 0.014200 0.008000
v 0.012414 0.010000 0.008878
v 0.012414 0.014200 0.008878
v 0.012157 0.010000 0.009722
v 0.012157 0.014200 0.009722
v 0.011742 0.010000 0.010500
v 0.011742 0.014200 0.010500
v 0.011182 0.010000 0.011182
v 0.011182 0.014200 0.011182
v 0.010500 0.010000 0.011742
v 0.010500 0.014200 0.011742
v 0.009722 0.010000 0.012157
v 0.009722 0.014200 0.012157
v 0.008878 0.010000 0.012414
v 0.008878 0.014200 0.012414
v 0.008000 0.010000 0.012500
v 0.008000 0.014200 0.012500
v 0.007122 0.010000 0.012414
v 0.007122 0.014200 0.012414
v 0.006278 0.010000 0.012157
v 0.006278 0.014200 0.012157
v 0.005500 0.010000 0.011742
v 0.005500 0.014200 0.011742
v 0.004818 0.010000 0.011182
v 0.004818 0.014200 0.011182
v 0.004258 0.010000 0.010500
v 0.004258 0.014200 0.010500
v 0.003843 0.010000 0.009722
v 0.003843 0.014200 0.009722
v 0.003586 0.010000 0.008878
v 0.003586 0.014200 0.008878
v 0.003500 0.010000 0.008000
v 0.003500 0.014200 0.008000
v 0.003586 0.010000 0.007122
v 0.003586 0.014200 0.007122
v 0.003843 0.010000 0.006278
v 0.003843 0.014200 0.006278
v 0.004258 0.010000 0.005500
v 0.004258 0.014200 0.005500
v 0.004818 0.010000 0.004818
v 0.004818 0.014200 0.004818
v 0.005500 0.010000 0.004258
v 0.005500 0.014200 0.004258
v 0.006278 0.010000 0.003843
v 0.006278 0.014200 0.003843
v 0.007122 0.010000 0.003586
v 0.007122 0.014200 0.003586
v -0.008000 0.010000 0.003500
v -0.008000 0.014200 0.003500
v -0.007122 0.010000 0.003586
v -0.007122 0.014200 0.003586
v -0.006278 0.010000 0.003843
v -0.006278 0.014200 0.003843
v -0.005500 0.010000 0.004258
v -0.005500 0.014200 0.004258
v -0.004818 0.010000 0.004818
v -0.004818 0.014200 0.004818
v -0.004258 0.010000 0.005500
v -0.004258 0.014200 0.005500
v -0.003843 0.010000 0.006278
v -0.003843 0.014200 0.006278
v -0.003586 0.010000 0.007122
v -0.003586 0.014200 0.007122
v -0.003500 0.010000 0.008000
v -0.003500 0.014200 0.008000
v -0.003586 0.010000 0.008878
v -0.003586 0.014200 0.008878
v -0.003843 0.010000 0.009722
v -0.003843 0.014200 0.009722
v -0.004258 0.010000 0.010500
v -0.004258 0.014200 0.010500
v -0.004818 0.010000 0.011182
v -0.004818 0.014200 0.011182
v -0.005500 0.010000 0.011742
v -0.005500 0.014200 0.011742
v -0.006278 0.010000 0.012157
v -0.006278 0.014200 0.012157
v -0.007122 0.010000 0.012414
v -0.007122 0.014200 0.012414
v -0.008000 0.010000 0.012500
v -0.008000 0.014200 0.012500
v -0.008878 0.010000 0.012414
v -0.008878 0.014200 0.012414
v -0.009722 0.010000 0.012157
v -0.009722 0.014200 0.012157
v -0.010500 0.010000 0.011742
v -0.010500 0.014200 0.011742
v -0.011182 0.010000 0.011182
v -0.011182 0.014200 0.011182
v -0.011742 0.010000 0.010500
v -0.011742 0.014200 0.010500
v -0.012157 0.010000 0.009722
v -0.012157 0.014200 0.009722
v -0.012414 0.010000 0.008878
v -0.012414 0.014200 0.008878
v -0.012500 0.010000 0.008000
v -0.012500 0.014200 0.008000
v -0.012414 0.010000 0.007122
v -0.012414 0.014200 0.007122
v -0.012157 0.010000 0.006278
v -0.012157 0.014200 0.006278
v -0.011742 0.010000 0.005500
v -0.011742 0.014200 0.005500
v -0.011182 0.010000 0.004818
v -0.011182 0.014200 0.004818
v -0.010500 0.010000 0.004258
v -0.010500 0.014200 0.004258
v -0.009722 0.010000 0.003843
v -0.009722 0.014200 0.003843
v -0.008878 0.010000 0.003586
v -0.008878 0.014200 0.003586
v 0.016000 -0.010000 -0.016000
v 0.016000 0.010000 -0.016000
v 0.016000 -0.010000 0.016000
v 0.016000 0.010000 0.016000
vn -1.0000 -0.0000 -0.0000
vn -0.0000 -1.0000 -0.0000
vn -0.0000 -0.0000 1.0000
vn 0.0980 -0.0000 -0.9952
vn 0.2903 -0.0000 -0.9569
vn 0.4714 -0.0000 -0.8819
vn 0.6344 -0.0000 -0.7730
vn 0.7730 -0.0000 -0.6344
vn 0.8819 -0.0000 -0.4714
vn 0.9569 -0.0000 -0.2903
vn 0.9952 -0.0000 -0.0980
vn 0.9952 -0.0000 0.0980
vn 0.9569 -0.0000 0.2903
vn 0.8819 -0.0000 0.4714
vn 0.7730 -0.0000 0.6344
vn 0.6344 -0.0000 0.7730
vn 0.4714 -0.0000 0.8819
vn 0.2903 -0.0000 0.9569
vn 0.0980 -0.0000 0.9952
vn -0.0980 -0.0000 0.9952
vn -0.2903 -0.0000 0.9569
vn -0.4714 -0.0000 0.8819
vn -0.6344 -0.0000 0.7730
vn -0.7730 -0.0000 0.6344
vn -0.8819 -0.0000 0.4714
vn -0.9569 -0.0000 0.2903
vn -0.9952 -0.0000 0.0980
vn -0.9952 -0.0000 -0.0980
vn -0.9569 -0.0000 -0.2903
vn -0.8819 -0.0000 -0.4714
vn -0.7730 -0.0000 -0.6344
vn -0.6344 -0.0000 -0.7730
vn -0.4714 -0.0000 -0.8819
vn -0.0000 1.0000 -0.0000
vn -0.2903 -0.0000 -0.9569
vn -0.0980 -0.0000 -0.9952
vn -0.0000 -0.0000 -1.0000
vn 1.0000 -0.0000 -0.0000
vt 0.375000 0.000000
vt 0.625000 0.000000
vt 0.625000 0.250000
vt 0.375000 0.250000
vt 0.125000 0.500000
vt 0.291667 0.500000
vt 0.291667 0.750000
vt 0.125000 0.750000
vt 0.375000 0.833333
vt 0.625000 0.833333
vt 0.625000 1.000000
vt 0.375000 1.000000
vt 1.000000 0.500000
vt 1.000000 1.000000
vt 0.968750 1.000000
vt 0.968750 0.500000
vt 0.937500 1.000000
vt 0.937500 0.500000
vt 0.906250 1.000000
vt 0.906250 0.500000
vt 0.875000 1.000000
vt 0.875000 0.500000
vt 0.843750 1.000000
vt 0.843750 0.500000
vt 0.812500 1.000000
vt 0.812500 0.500000
vt 0.781250 1.000000
vt 0.781250 0.500000
vt 0.750000 1.000000
vt 0.750000 0.500000
vt 0.718750 1.000000
vt 0.718750 0.500000
vt 0.687500 1.000000
vt 0.687500 0.500000
vt 0.656250 1.000000
vt 0.656250 0.500000
vt 0.625000 0.500000
vt 0.593750 1.000000
vt 0.593750 0.500000
vt 0.562500 1.000000
vt 0.562500 0.500000
vt 0.531250 1.000000
vt 0.531250 0.500000
vt 0.500000 1.000000
vt 0.500000 0.500000
vt 0.468750 1.000000
vt 0.468750 0.500000
vt 0.437500 1.000000
vt 0.437500 0.500000
vt 0.406250 1.000000
vt 0.406250 0.500000
vt 0.375000 0.500000
vt 0.343750 1.000000
vt 0.343750 0.500000
vt 0.312500 1.000000
vt 0.312500 0.500000
vt 0.281250 1.000000
vt 0.281250 0.500000
vt 0.250000 1.000000
vt 0.250000 0.500000
vt 0.218750 1.000000
vt 0.218750 0.500000
vt 0.187500 1.000000
vt 0.187500 0.500000
vt 0.156250 1.000000
vt 0.156250 0.500000
vt 0.125000 1.000000
vt 0.093750 1.000000
vt 0.093750 0.500000
vt 0.062500 1.000000
vt 0.062500 0.500000
vt 0.296822 0.485388
vt 0.250000 0.490000
vt 0.203178 0.485388
vt 0.158156 0.471731
vt 0.116663 0.449553
vt 0.080294 0.419706
vt 0.050447 0.383337
vt 0.028269 0.341844
vt 0.014612 0.296822
vt 0.010000 0.250000
vt 0.014612 0.203178
vt 0.028269 0.158156
vt 0.050447 0.116663
vt 0.080294 0.080294
vt 0.116663 0.050447
vt 0.158156 0.028269
vt 0.203178 0.014612
vt 0.250000 0.010000
vt 0.296822 0.014612
vt 0.341844 0.028269
vt 0.383337 0.050447
vt 0.419706 0.080294
vt 0.449553 0.116663
vt 0.471731 0.158156
vt 0.485388 0.203178
vt 0.490000 0.250000
vt 0.485388 0.296822
vt 0.471731 0.341844
vt 0.449553 0.383337
vt 0.419706 0.419706
vt 0.383337 0.449553
vt 0.341844 0.471731
vt 0.031250 1.000000
vt 0.031250 0.500000
vt 0.000000 1.000000
vt 0.000000 0.500000
vt 0.750000 0.490000
vt 0.796822 0.485388
vt 0.841844 0.471731
vt 0.883337 0.449553
vt 0.919706 0.419706
vt 0.949553 0.383337
vt 0.971731 0.341844
vt 0.985388 0.296822
vt 0.990000 0.250000
vt 0.985388 0.203178
vt 0.971731 0.158156
vt 0.949553 0.116663
vt 0.919706 0.080294
vt 0.883337 0.050447
vt 0.841844 0.028269
vt 0.796822 0.014612
vt 0.750000 0.010000
vt 0.703178 0.014612
vt 0.658156 0.028269
vt 0.616663 0.050447
vt 0.580294 0.080294
vt 0.550447 0.116663
vt 0.528269 0.158156
vt 0.514612 0.203178
vt 0.510000 0.250000
vt 0.514612 0.296822
vt 0.528269 0.341844
vt 0.550447 0.383337
vt 0.580294 0.419706
vt 0.616663 0.449553
vt 0.658156 0.471731
vt 0.703178 0.485388
vt 0.708333 0.500000
vt 0.875000 0.750000
vt 0.708333 0.750000
vt 0.625000 0.416667
vt 0.375000 0.416667
s 0
f 1/1/1 2/2/1 4/3/1 3/4/1
f 3/5/2 261/6/2 263/7/2 1/8/2
f 263/9/3 264/10/3 2/11/3 1/12/3
f 5/13/4 6/14/4 8/15/4 7/16/4
f 7/16/5 8/15/5 10/17/5 9/18/5
f 9/18/6 10/17/6 12/19/6 11/20/6
f 11/20/7 12/19/7 14/21/7 13/22/7
f 13/22/8 14/21/8 16/23/8 15/24/8
f 15/24/9 16/23/9 18/25/9 17/26/9
f 17/26/10 18/25/10 20/27/10 19/28/10
f 19/28/11 20/27/11 22/29/11 21/30/11
f 21/30/12 22/29/12 24/31/12 23/32/12
f 23/32/13 24/31/13 26/33/13 25/34/13
f 25/34/14 26/33/14 28/35/14 27/36/14
f 27/36/15 28/35/15 30/11/15 29/37/15
f 29/37/16 30/11/16 32/38/16 31/39/16
f 31/39/17 32/38/17 34/40/17 33/41/17
f 33/41/18 34/40/18 36/42/18 35/43/18
f 35/43/19 36/42/19 38/44/19 37/45/19
f 37/45/20 38/44/20 40/46/20 39/47/20
f 39/47/21 40/46/21 42/48/21 41/49/21
f 41/49/22 42/48/22 44/50/22 43/51/22
f 43/51/23 44/50/23 46/12/23 45/52/23
f 45/52/24 46/12/24 48/53/24 47/54/24
f 47/54/25 48/53/25 50/55/25 49/56/25
f 49/56/26 50/55/26 52/57/26 51/58/26
f 51/58/27 52/57/27 54/59/27 53/60/27
f 53/60/28 54/59/28 56/61/28 55/62/28
f 55/62/29 56/61/29 58/63/29 57/64/29
f 57/64/30 58/63/30 60/65/30 59/66/30
f 59/66/31 60/65/31 62/67/31 61/5/31
f 61/5/32 62/67/32 64/68/32 63/69/32
f 63/69/33 64/68/33 66/70/33 65/71/33
f 8/72/34 6/73/34 68/74/34 66/75/34 64/76/34 62/77/34 60/78/34 58/79/34 56/80/34 54/81/34 52/82/34 50/83/34 48/84/34 46/85/34 44/86/34 42/87/34 40/88/34 38/89/34 36/90/34 34/91/34 32/92/34 30/93/34 28/94/34 26/95/34 24/96/34 22/97/34 20/98/34 18/99/34 16/100/34 14/101/34 12/102/34 10/103/34
f 65/71/35 66/70/35 68/104/35 67/105/35
f 67/105/36 68/104/36 6/106/36 5/107/36
f 5/108/2 7/109/2 9/110/2 11/111/2 13/112/2 15/113/2 17/114/2 19/115/2 21/116/2 23/117/2 25/118/2 27/119/2 29/120/2 31/121/2 33/122/2 35/123/2 37/124/2 39/125/2 41/126/2 43/127/2 45/128/2 47/129/2 49/130/2 51/131/2 53/132/2 55/133/2 57/134/2 59/135/2 61/136/2 63/137/2 65/138/2 67/139/2
f 69/13/4 70/14/4 72/15/4 71/16/4
f 71/16/5 72/15/5 74/17/5 73/18/5
f 73/18/6 74/17/6 76/19/6 75/20/6
f 75/20/7 76/19/7 78/21/7 77/22/7
f 77/22/8 78/21/8 80/23/8 79/24/8
f 79/24/9 80/23/9 82/25/9 81/26/9
f 81/26/10 82/25/10 84/27/10 83/28/10
f 83/28/11 84/27/11 86/29/11 85/30/11
f 85/30/12 86/29/12 88/31/12 87/32/12
f 87/32/13 88/31/13 90/33/13 89/34/13
f 89/34/14 90/33/14 92/35/14 91/36/14
f 91/36/15 92/35/15 94/11/15 93/37/15
f 93/37/16 94/11/16 96/38/16 95/39/16
f 95/39/17 96/38/17 98/40/17 97/41/17
f 97/41/18 98/40/18 100/42/18 99/43/18
f 99/43/19 100/42/19 102/44/19 101/45/19
f 101/45/20 102/44/20 104/46/20 103/47/20
f 103/47/21 104/46/21 106/48/21 105/49/21
f 105/49/22 106/48/22 108/50/22 107/51/22
f 107/51/23 108/50/23 110/12/23 109/52/23
f 109/52/24 110/12/24 112/53/24 111/54/24
f 111/54/25 112/53/25 114/55/25 113/56/25
f 113/56/26 114/55/26 116/57/26 115/58/26
f 115/58/27 116/57/27 118/59/27 117/60/27
f 117/60/28 118/59/28 120/61/28 119/62/28
f 119/62/29 120/61/29 122/63/29 121/64/29
f 121/64/30 122/63/30 124/65/30 123/66/30
f 123/66/31 124/65/31 126/67/31 125/5/31
f 125/5/32 126/67/32 128/68/32 127/69/32
f 127/69/33 128/68/33 130/70/33 129/71/33
f 72/72/34 70/73/34 132/74/34 130/75/34 128/76/34 126/77/34 124/78/34 122/79/34 120/80/34 118/81/34 116/82/34 114/83/34 112/84/34 110/85/34 108/86/34 106/87/34 104/88/34 102/89/34 100/90/34 98/91/34 96/92/34 94/93/34 92/94/34 90/95/34 88/96/34 86/97/34 84/98/34 82/99/34 80/100/34 78/101/34 76/102/34 74/103/34
f 129/71/35 130/70/35 132/104/35 131/105/35
f 131/105/36 132/104/36 70/106/36 69/107/36
f 69/108/2 71/109/2 73/110/2 75/111/2 77/112/2 79/113/2 81/114/2 83/115/2 85/116/2 87/117/2 89/118/2 91/119/2 93/120/2 95/121/2 97/122/2 99/123/2 101/124/2 103/125/2 105/126/2 107/127/2 109/128/2 111/129/2 113/130/2 115/131/2 117/132/2 119/133/2 121/134/2 123/135/2 125/136/2 127/137/2 129/138/2 131/139/2
f 262/140/34 4/22/34 2/141/34 264/142/34
f 133/13/4 134/14/4 136/15/4 135/16/4
f 135/16/5 136/15/5 138/17/5 137/18/5
f 137/18/6 138/17/6 140/19/6 139/20/6
f 139/20/7 140/19/7 142/21/7 141/22/7
f 141/22/8 142/21/8 144/23/8 143/24/8
f 143/24/9 144/23/9 146/25/9 145/26/9
f 145/26/10 146/25/10 148/27/10 147/28/10
f 147/28/11 148/27/11 150/29/11 149/30/11
f 149/30/12 150/29/12 152/31/12 151/32/12
f 151/32/13 152/31/13 154/33/13 153/34/13
f 153/34/14 154/33/14 156/35/14 155/36/14
f 155/36/15 156/35/15 158/11/15 157/37/15
f 157/37/16 158/11/16 160/38/16 159/39/16
f 159/39/17 160/38/17 162/40/17 161/41/17
f 161/41/18 162/40/18 164/42/18 163/43/18
f 163/43/19 164/42/19 166/44/19 165/45/19
f 165/45/20 166/44/20 168/46/20 167/47/20
f 167/47/21 168/46/21 170/48/21 169/49/21
f 169/49/22 170/48/22 172/50/22 171/51/22
f 171/51/23 172/50/23 174/12/23 173/52/23
f 173/52/24 174/12/24 176/53/24 175/54/24
f 175/54/25 176/53/25 178/55/25 177/56/25
f 177/56/26 178/55/26 180/57/26 179/58/26
f 179/58/27 180/57/27 182/59/27 181/60/27
f 181/60/28 182/59/28 184/61/28 183/62/28
f 183/62/29 184/61/29 186/63/29 185/64/29
f 185/64/30 186/63/30 188/65/30 187/66/30
f 187/66/31 188/65/31 190/67/31 189/5/31
f 189/5/32 190/67/32 192/68/32 191/69/32
f 191/69/33 192/68/33 194/70/33 193/71/33
f 136/72/34 134/73/34 196/74/34 194/75/34 192/76/34 190/77/34 188/78/34 186/79/34 184/80/34 182/81/34 180/82/34 178/83/34 176/84/34 174/85/34 172/86/34 170/87/34 168/88/34 166/89/34 164/90/34 162/91/34 160/92/34 158/93/34 156/94/34 154/95/34 152/96/34 150/97/34 148/98/34 146/99/34 144/100/34 142/101/34 140/102/34 138/103/34
f 193/71/35 194/70/35 196/104/35 195/105/35
f 195/105/36 196/104/36 134/106/36 133/107/36
f 133/108/2 135/109/2 137/110/2 139/111/2 141/112/2 143/113/2 145/114/2 147/115/2 149/116/2 151/117/2 153/118/2 155/119/2 157/120/2 159/121/2 161/122/2 163/123/2 165/124/2 167/125/2 169/126/2 171/127/2 173/128/2 175/129/2 177/130/2 179/131/2 181/132/2 183/133/2 185/134/2 187/135/2 189/136/2 191/137/2 193/138/2 195/139/2
f 197/13/4 198/14/4 200/15/4 199/16/4
f 199/16/5 200/15/5 202/17/5 201/18/5
f 201/18/6 202/17/6 204/19/6 203/20/6
f 203/20/7 204/19/7 206/21/7 205/22/7
f 205/22/8 206/21/8 208/23/8 207/24/8
f 207/24/9 208/23/9 210/25/9 209/26/9
f 209/26/10 210/25/10 212/27/10 211/28/10
f 211/28/11 212/27/11 214/29/11 213/30/11
f 213/30/12 214/29/12 216/31/12 215/32/12
f 215/32/13 216/31/13 218/33/13 217/34/13
f 217/34/14 218/33/14 220/35/14 219/36/14
f 219/36/15 220/35/15 222/11/15 221/37/15
f 221/37/16 222/11/16 224/38/16 223/39/16
f 223/39/17 224/38/17 226/40/17 225/41/17
f 225/41/18 226/40/18 228/42/18 227/43/18
f 227/43/19 228/42/19 230/44/19 229/45/19
f 229/45/20 230/44/20 232/46/20 231/47/20
f 231/47/21 232/46/21 234/48/21 233/49/21
f 233/49/22 234/48/22 236/50/22 235/51/22
f 235/51/23 236/50/23 238/12/23 237/52/23
f 237/52/24 238/12/24 240/53/24 239/54/24
f 239/54/25 240/53/25 242/55/25 241/56/25
f 241/56/26 242/55/26 244/57/26 243/58/26
f 243/58/27 244/57/27 246/59/27 245/60/27
f 245/60/28 246/59/28 248/61/28 247/62/28
f 247/62/29 248/61/29 250/63/29 249/64/29
f 249/64/30 250/63/30 252/65/30 251/66/30
f 251/66/31 252/65/31 254/67/31 253/5/31
f 253/5/32 254/67/32 256/68/32 255/69/32
f 255/69/33 256/68/33 258/70/33 257/71/33
f 200/72/34 198/73/34 260/74/34 258/75/34 256/76/34 254/77/34 252/78/34 250/79/34 248/80/34 246/81/34 244/82/34 242/83/34 240/84/34 238/85/34 236/86/34 234/87/34 232/88/34 230/89/34 228/90/34 226/91/34 224/92/34 222/93/34 220/94/34 218/95/34 216/96/34 214/97/34 212/98/34 210/99/34 208/100/34 206/101/34 204/102/34 202/103/34
f 257/71/35 258/70/35 260/104/35 259/105/35
f 259/105/36 260/104/36 198/106/36 197/107/36
f 197/108/2 199/109/2 201/110/2 203/111/2 205/112/2 207/113/2 209/114/2 211/115/2 213/116/2 215/117/2 217/118/2 219/119/2 221/120/2 223/121/2 225/122/2 227/123/2 229/124/2 231/125/2 233/126/2 235/127/2 237/128/2 239/129/2 241/130/2 243/131/2 245/132/2 247/133/2 249/134/2 251/135/2 253/136/2 255/137/2 257/138/2 259/139/2
f 3/4/37 4/3/37 262/143/37 261/144/37
f 264/10/38 263/9/38 261/6/38 262/143/38
